<svg width="170" height="30" viewBox="0 0 170 30" fill="none" xmlns="http://www.w3.org/2000/svg">
<path d="M28 8.70905L26.7593 12.9708L25.9672 12.1805L21.7839 16.1319L18.7806 18.9683L16.3251 21.2874L14.0129 18.9683L12.9229 17.8747L11.5739 16.5208L11.1695 16.1158L8.95471 13.8931L8.10371 14.7154L7.81883 14.9902L6.46975 16.296L5.11698 17.6036L3.72379 18.9505L3.70539 18.9683L1.71118 20.8949L0 22.5504L2.72392 18.9683L6.46975 14.0393L7.81883 12.2661L8.98595 10.7302L11.5739 13.3276L12.6803 14.4389L12.9229 14.6816L16.3747 18.1423L16.6798 17.8534L18.0289 16.5796L18.6281 16.0141L20.3723 14.3658L21.7839 13.0332L24.3718 10.5892L23.5778 9.79899L28 8.70905Z" fill="#2DFF34"/>
<path d="M6.46975 8.70905V14.0393L2.72392 18.9683H2.71289V8.70905H6.46975Z" fill="#FFCE5F"/>
<path d="M27.1545 16.0142C27.1545 23.726 20.6921 30 12.7446 30C8.69002 30 4.91844 28.3463 2.25154 25.5991C1.72587 25.0586 1.24431 24.477 0.810547 23.8562L2.46658 22.2561L5.12983 19.6855L5.87054 18.9683L6.46973 18.3903L7.81881 17.0845L8.11656 16.7973L8.82052 16.1159L8.93446 16.0035L8.9363 16.0052L8.99878 15.9446L11.5738 18.5277L12.6931 19.6516L16.3857 23.3568L18.639 21.2268L20.3851 19.5802L21.0321 18.9684L21.7838 18.2584L24.3827 15.8019L16.3378 26.5018L11.1804 21.3303L8.96566 19.1075L8.11652 19.9281L5.12979 22.8162L3.87444 24.0311C6.11864 26.3698 9.31122 27.7791 12.7446 27.7791C19.4294 27.7791 24.8662 22.5023 24.8662 16.0142H27.1545V16.0142Z" fill="#00B7FF"/>
<path d="M11.5739 5.60332V13.3276L8.98597 10.7302L7.81885 12.2662V5.60332H11.5739Z" fill="#FFCE5F"/>
<path d="M16.6798 3.08618V17.8534L16.3747 18.1424L12.923 14.6816V3.08618H16.6798Z" fill="#FFCE5F"/>
<path d="M21.7839 0V13.0333L20.3724 14.3658L18.6281 16.0142L18.0289 16.5797V0H21.7839Z" fill="#FFCE5F"/>
<path d="M48.4017 12.192C47.8097 11.824 47.1777 11.512 46.5057 11.256C45.8497 10.984 45.2097 10.776 44.5857 10.632C43.9777 10.472 43.4417 10.392 42.9777 10.392C42.4497 10.392 42.0257 10.496 41.7057 10.704C41.3857 10.896 41.2257 11.2 41.2257 11.616C41.2257 12.032 41.3777 12.376 41.6817 12.648C42.0017 12.904 42.4257 13.12 42.9537 13.296C43.4817 13.472 44.0657 13.648 44.7057 13.824C45.3457 14 45.9777 14.208 46.6017 14.448C47.2257 14.688 47.8017 15 48.3297 15.384C48.8577 15.752 49.2817 16.232 49.6017 16.824C49.9217 17.416 50.0817 18.152 50.0817 19.032C50.0817 20.168 49.7777 21.128 49.1697 21.912C48.5617 22.68 47.7457 23.264 46.7217 23.664C45.6977 24.048 44.5617 24.24 43.3137 24.24C42.3697 24.24 41.4257 24.136 40.4817 23.928C39.5537 23.704 38.6657 23.392 37.8177 22.992C36.9857 22.576 36.2337 22.088 35.5617 21.528L37.2657 18.144C37.8417 18.656 38.4897 19.104 39.2097 19.488C39.9297 19.872 40.6577 20.176 41.3937 20.4C42.1297 20.608 42.7857 20.712 43.3617 20.712C44.0177 20.712 44.5297 20.592 44.8977 20.352C45.2817 20.096 45.4737 19.728 45.4737 19.248C45.4737 18.832 45.3137 18.496 44.9937 18.24C44.6737 17.968 44.2497 17.744 43.7217 17.568C43.1937 17.392 42.6097 17.224 41.9697 17.064C41.3457 16.888 40.7137 16.688 40.0737 16.464C39.4497 16.224 38.8737 15.928 38.3457 15.576C37.8177 15.208 37.3937 14.736 37.0737 14.16C36.7697 13.584 36.6177 12.864 36.6177 12C36.6177 10.96 36.8897 10.056 37.4337 9.288C37.9937 8.504 38.7777 7.904 39.7857 7.488C40.8097 7.056 41.9937 6.84 43.3377 6.84C44.5697 6.84 45.7777 7.016 46.9617 7.368C48.1457 7.72 49.1777 8.176 50.0577 8.736L48.4017 12.192ZM56.9333 19.392C56.9333 19.888 57.0373 20.248 57.2453 20.472C57.4533 20.696 57.7413 20.8 58.1093 20.784C58.3333 20.784 58.5813 20.744 58.8533 20.664C59.1253 20.584 59.4133 20.48 59.7173 20.352L60.5333 23.304C60.0693 23.592 59.5253 23.816 58.9013 23.976C58.2933 24.12 57.6693 24.192 57.0293 24.192C56.1973 24.192 55.4533 24.04 54.7973 23.736C54.1413 23.416 53.6213 22.952 53.2373 22.344C52.8693 21.72 52.6853 20.96 52.6853 20.064V8.064H56.9333V19.392ZM50.8853 11.64H60.2933V14.424H50.8853V11.64ZM68.299 10.896C69.723 10.896 70.963 11.168 72.019 11.712C73.091 12.256 73.923 13.024 74.515 14.016C75.107 15.008 75.403 16.168 75.403 17.496C75.403 18.824 75.107 19.992 74.515 21C73.923 21.992 73.091 22.768 72.019 23.328C70.963 23.872 69.723 24.144 68.299 24.144C66.875 24.144 65.627 23.872 64.555 23.328C63.499 22.768 62.675 21.992 62.083 21C61.507 19.992 61.219 18.824 61.219 17.496C61.219 16.168 61.507 15.008 62.083 14.016C62.675 13.024 63.499 12.256 64.555 11.712C65.627 11.168 66.875 10.896 68.299 10.896ZM68.299 14.28C67.739 14.28 67.251 14.416 66.835 14.688C66.419 14.96 66.091 15.344 65.851 15.84C65.627 16.336 65.515 16.912 65.515 17.568C65.515 18.224 65.627 18.8 65.851 19.296C66.091 19.776 66.419 20.152 66.835 20.424C67.251 20.696 67.739 20.832 68.299 20.832C68.859 20.832 69.347 20.696 69.763 20.424C70.195 20.152 70.523 19.776 70.747 19.296C70.987 18.8 71.107 18.224 71.107 17.568C71.107 16.912 70.987 16.336 70.747 15.84C70.523 15.344 70.195 14.96 69.763 14.688C69.347 14.416 68.859 14.28 68.299 14.28ZM85.7157 15.696C85.4277 15.264 85.0677 14.936 84.6357 14.712C84.2197 14.472 83.7317 14.352 83.1717 14.352C82.6597 14.352 82.2037 14.488 81.8037 14.76C81.4197 15.016 81.1157 15.384 80.8917 15.864C80.6837 16.344 80.5797 16.904 80.5797 17.544C80.5797 18.184 80.6837 18.744 80.8917 19.224C81.1157 19.704 81.4197 20.08 81.8037 20.352C82.2037 20.624 82.6597 20.76 83.1717 20.76C83.7477 20.76 84.2437 20.64 84.6597 20.4C85.0917 20.16 85.4437 19.784 85.7157 19.272L88.8597 21.072C88.3477 22.048 87.5797 22.808 86.5557 23.352C85.5317 23.88 84.3317 24.144 82.9557 24.144C81.6277 24.144 80.4597 23.872 79.4517 23.328C78.4437 22.784 77.6597 22.016 77.0997 21.024C76.5557 20.032 76.2837 18.88 76.2837 17.568C76.2837 16.224 76.5637 15.056 77.1237 14.064C77.6837 13.056 78.4677 12.28 79.4757 11.736C80.4837 11.176 81.6597 10.896 83.0037 10.896C84.2997 10.896 85.4517 11.16 86.4597 11.688C87.4677 12.2 88.2517 12.936 88.8117 13.896L85.7157 15.696ZM90.6962 6.192H94.9682V24H90.6962V6.192ZM99.1202 11.04H103.968L94.7282 20.736V15.744L99.1202 11.04ZM98.9042 15.552L104.064 24H99.0242L95.7602 18.12L98.9042 15.552ZM112.916 7.176C115.06 7.176 116.724 7.696 117.908 8.736C119.092 9.76 119.684 11.208 119.684 13.08C119.684 15.048 119.092 16.584 117.908 17.688C116.724 18.776 115.06 19.32 112.916 19.32H107.996L109.916 17.4V24H105.524V7.176H112.916ZM112.7 15.864C113.596 15.864 114.284 15.64 114.764 15.192C115.26 14.744 115.508 14.08 115.508 13.2C115.508 12.352 115.26 11.712 114.764 11.28C114.284 10.848 113.596 10.632 112.7 10.632H107.996L109.916 8.712V17.784L107.996 15.864H112.7ZM125.484 18.024C125.484 18.76 125.668 19.344 126.036 19.776C126.42 20.208 126.932 20.424 127.572 20.424C128.34 20.408 128.932 20.12 129.348 19.56C129.78 19 129.996 18.296 129.996 17.448H131.004C131.004 18.904 130.796 20.136 130.38 21.144C129.964 22.136 129.372 22.888 128.604 23.4C127.836 23.912 126.916 24.168 125.844 24.168C124.916 24.168 124.1 23.968 123.396 23.568C122.708 23.152 122.172 22.576 121.788 21.84C121.404 21.104 121.212 20.232 121.212 19.224V11.04H125.484V18.024ZM129.996 11.04H134.268V24H129.996V11.04ZM137.414 6.192H141.686V24H137.414V6.192ZM153.499 15.072C152.699 14.656 151.947 14.336 151.243 14.112C150.539 13.888 149.915 13.776 149.371 13.776C149.019 13.776 148.723 13.848 148.483 13.992C148.259 14.12 148.147 14.328 148.147 14.616C148.147 14.904 148.307 15.136 148.627 15.312C148.963 15.472 149.387 15.632 149.899 15.792C150.427 15.936 150.979 16.096 151.555 16.272C152.131 16.448 152.675 16.688 153.187 16.992C153.715 17.28 154.139 17.672 154.459 18.168C154.779 18.648 154.939 19.264 154.939 20.016C154.939 20.896 154.699 21.648 154.219 22.272C153.755 22.896 153.107 23.368 152.275 23.688C151.459 24.008 150.515 24.168 149.443 24.168C148.355 24.168 147.307 24.016 146.299 23.712C145.291 23.408 144.387 22.952 143.587 22.344L144.931 19.632C145.683 20.144 146.459 20.544 147.259 20.832C148.059 21.104 148.819 21.24 149.539 21.24C149.811 21.24 150.043 21.208 150.235 21.144C150.443 21.08 150.603 20.992 150.715 20.88C150.843 20.752 150.907 20.592 150.907 20.4C150.907 20.096 150.747 19.856 150.427 19.68C150.107 19.488 149.691 19.328 149.179 19.2C148.667 19.056 148.123 18.896 147.547 18.72C146.971 18.544 146.427 18.312 145.915 18.024C145.419 17.72 145.011 17.328 144.691 16.848C144.371 16.368 144.211 15.752 144.211 15C144.211 14.104 144.443 13.352 144.907 12.744C145.387 12.12 146.019 11.648 146.803 11.328C147.603 11.008 148.515 10.848 149.539 10.848C150.483 10.848 151.419 10.976 152.347 11.232C153.275 11.472 154.139 11.84 154.939 12.336L153.499 15.072ZM165.129 16.392C165.145 15.864 165.049 15.416 164.841 15.048C164.649 14.664 164.369 14.368 164.001 14.16C163.633 13.952 163.209 13.848 162.729 13.848C162.169 13.848 161.689 14 161.289 14.304C160.905 14.592 160.601 15 160.377 15.528C160.169 16.04 160.065 16.64 160.065 17.328C160.065 18.08 160.193 18.728 160.449 19.272C160.705 19.816 161.065 20.24 161.529 20.544C162.009 20.832 162.561 20.976 163.185 20.976C164.337 20.976 165.353 20.536 166.233 19.656L168.465 21.864C167.809 22.584 167.001 23.144 166.041 23.544C165.097 23.944 164.017 24.144 162.801 24.144C161.393 24.144 160.169 23.872 159.129 23.328C158.105 22.784 157.313 22.016 156.753 21.024C156.209 20.032 155.937 18.88 155.937 17.568C155.937 16.224 156.217 15.056 156.777 14.064C157.337 13.056 158.129 12.28 159.153 11.736C160.177 11.176 161.361 10.896 162.705 10.896C164.225 10.896 165.481 11.216 166.473 11.856C167.481 12.48 168.217 13.376 168.681 14.544C169.161 15.712 169.353 17.08 169.257 18.648H159.465V16.392H165.129Z" fill="white"/>
</svg>
